<mxfile host="app.diagrams.net" modified="2024-09-18T03:00:00.000Z" agent="5.0" etag="xxx" version="21.6.5" type="device">
  <diagram name="分布式系统通信挑战对比" id="communication-challenges">
    <mxGraphModel dx="1422" dy="794" grid="1" gridSize="10" guides="1" tooltips="1" connect="1" arrows="1" fold="1" page="1" pageScale="1" pageWidth="1169" pageHeight="827" math="0" shadow="0">
      <root>
        <mxCell id="0" />
        <mxCell id="1" parent="0" />
        
        <!-- 标题 -->
        <mxCell id="title" value="单机通信 vs 分布式通信挑战对比" style="text;html=1;strokeColor=none;fillColor=none;align=center;verticalAlign=middle;whiteSpace=wrap;rounded=0;fontSize=18;fontStyle=1;fontColor=#2c3e50;" vertex="1" parent="1">
          <mxGeometry x="350" y="30" width="400" height="40" as="geometry" />
        </mxCell>
        
        <!-- 分割线 -->
        <mxCell id="divider" value="" style="endArrow=none;html=1;rounded=0;strokeWidth=2;strokeColor=#bdc3c7;" edge="1" parent="1">
          <mxGeometry width="50" height="50" relative="1" as="geometry">
            <mxPoint x="584" y="100" as="sourcePoint" />
            <mxPoint x="584" y="750" as="targetPoint" />
          </mxGeometry>
        </mxCell>
        
        <!-- 左侧：单机通信 -->
        <mxCell id="local-title" value="单机通信" style="text;html=1;strokeColor=none;fillColor=none;align=center;verticalAlign=middle;whiteSpace=wrap;rounded=0;fontSize=16;fontStyle=1;fontColor=#27ae60;" vertex="1" parent="1">
          <mxGeometry x="200" y="80" width="200" height="30" as="geometry" />
        </mxCell>
        
        <!-- 单机通信架构 -->
        <mxCell id="local-cpu" value="CPU" style="rounded=1;whiteSpace=wrap;html=1;fillColor=#d5e8d4;strokeColor=#82b366;fontSize=12;fontStyle=1;" vertex="1" parent="1">
          <mxGeometry x="150" y="140" width="80" height="40" as="geometry" />
        </mxCell>
        
        <mxCell id="local-memory" value="内存" style="rounded=1;whiteSpace=wrap;html=1;fillColor=#d5e8d4;strokeColor=#82b366;fontSize=12;fontStyle=1;" vertex="1" parent="1">
          <mxGeometry x="270" y="140" width="80" height="40" as="geometry" />
        </mxCell>
        
        <mxCell id="local-storage" value="存储" style="rounded=1;whiteSpace=wrap;html=1;fillColor=#d5e8d4;strokeColor=#82b366;fontSize=12;fontStyle=1;" vertex="1" parent="1">
          <mxGeometry x="390" y="140" width="80" height="40" as="geometry" />
        </mxCell>
        
        <!-- 单机通信连接 -->
        <mxCell id="local-conn1" value="" style="endArrow=classic;startArrow=classic;html=1;rounded=0;strokeWidth=2;strokeColor=#27ae60;" edge="1" parent="1">
          <mxGeometry width="50" height="50" relative="1" as="geometry">
            <mxPoint x="240" y="160" as="sourcePoint" />
            <mxPoint x="260" y="160" as="targetPoint" />
          </mxGeometry>
        </mxCell>
        
        <mxCell id="local-conn2" value="" style="endArrow=classic;startArrow=classic;html=1;rounded=0;strokeWidth=2;strokeColor=#27ae60;" edge="1" parent="1">
          <mxGeometry width="50" height="50" relative="1" as="geometry">
            <mxPoint x="360" y="160" as="sourcePoint" />
            <mxPoint x="380" y="160" as="targetPoint" />
          </mxGeometry>
        </mxCell>
        
        <!-- 单机通信特点 -->
        <mxCell id="local-features" value="通信特点" style="text;html=1;strokeColor=none;fillColor=none;align=center;verticalAlign=middle;whiteSpace=wrap;rounded=0;fontSize=14;fontStyle=1;fontColor=#2c3e50;" vertex="1" parent="1">
          <mxGeometry x="250" y="220" width="100" height="30" as="geometry" />
        </mxCell>
        
        <mxCell id="local-latency" value="延迟：纳秒级" style="rounded=1;whiteSpace=wrap;html=1;fillColor=#e8f5e8;strokeColor=#82b366;fontSize=11;" vertex="1" parent="1">
          <mxGeometry x="120" y="270" width="100" height="30" as="geometry" />
        </mxCell>
        
        <mxCell id="local-reliability" value="可靠性：极高" style="rounded=1;whiteSpace=wrap;html=1;fillColor=#e8f5e8;strokeColor=#82b366;fontSize=11;" vertex="1" parent="1">
          <mxGeometry x="240" y="270" width="100" height="30" as="geometry" />
        </mxCell>
        
        <mxCell id="local-complexity" value="复杂度：简单" style="rounded=1;whiteSpace=wrap;html=1;fillColor=#e8f5e8;strokeColor=#82b366;fontSize=11;" vertex="1" parent="1">
          <mxGeometry x="360" y="270" width="100" height="30" as="geometry" />
        </mxCell>
        
        <mxCell id="local-bandwidth" value="带宽：内存总线" style="rounded=1;whiteSpace=wrap;html=1;fillColor=#e8f5e8;strokeColor=#82b366;fontSize=11;" vertex="1" parent="1">
          <mxGeometry x="180" y="320" width="120" height="30" as="geometry" />
        </mxCell>
        
        <mxCell id="local-failure" value="故障模式：进程崩溃" style="rounded=1;whiteSpace=wrap;html=1;fillColor=#e8f5e8;strokeColor=#82b366;fontSize=11;" vertex="1" parent="1">
          <mxGeometry x="320" y="320" width="120" height="30" as="geometry" />
        </mxCell>
        
        <!-- 右侧：分布式通信 -->
        <mxCell id="distributed-title" value="分布式通信" style="text;html=1;strokeColor=none;fillColor=none;align=center;verticalAlign=middle;whiteSpace=wrap;rounded=0;fontSize=16;fontStyle=1;fontColor=#e74c3c;" vertex="1" parent="1">
          <mxGeometry x="700" y="80" width="200" height="30" as="geometry" />
        </mxCell>
        
        <!-- 分布式通信架构 -->
        <mxCell id="dist-node1" value="节点A" style="rounded=1;whiteSpace=wrap;html=1;fillColor=#f8cecc;strokeColor=#b85450;fontSize=12;fontStyle=1;" vertex="1" parent="1">
          <mxGeometry x="650" y="140" width="80" height="60" as="geometry" />
        </mxCell>
        
        <mxCell id="dist-node2" value="节点B" style="rounded=1;whiteSpace=wrap;html=1;fillColor=#f8cecc;strokeColor=#b85450;fontSize=12;fontStyle=1;" vertex="1" parent="1">
          <mxGeometry x="850" y="140" width="80" height="60" as="geometry" />
        </mxCell>
        
        <mxCell id="dist-node3" value="节点C" style="rounded=1;whiteSpace=wrap;html=1;fillColor=#f8cecc;strokeColor=#b85450;fontSize=12;fontStyle=1;" vertex="1" parent="1">
          <mxGeometry x="750" y="240" width="80" height="60" as="geometry" />
        </mxCell>
        
        <!-- 网络连接 -->
        <mxCell id="network" value="网络" style="ellipse;whiteSpace=wrap;html=1;fillColor=#fff2cc;strokeColor=#d6b656;fontSize=12;fontStyle=1;" vertex="1" parent="1">
          <mxGeometry x="740" y="160" width="100" height="60" as="geometry" />
        </mxCell>
        
        <!-- 分布式通信连接 -->
        <mxCell id="dist-conn1" value="" style="endArrow=classic;startArrow=classic;html=1;rounded=0;strokeWidth=2;strokeColor=#e74c3c;curved=1;" edge="1" parent="1">
          <mxGeometry width="50" height="50" relative="1" as="geometry">
            <mxPoint x="730" y="170" as="sourcePoint" />
            <mxPoint x="750" y="180" as="targetPoint" />
          </mxGeometry>
        </mxCell>
        
        <mxCell id="dist-conn2" value="" style="endArrow=classic;startArrow=classic;html=1;rounded=0;strokeWidth=2;strokeColor=#e74c3c;curved=1;" edge="1" parent="1">
          <mxGeometry width="50" height="50" relative="1" as="geometry">
            <mxPoint x="830" y="180" as="sourcePoint" />
            <mxPoint x="850" y="170" as="targetPoint" />
          </mxGeometry>
        </mxCell>
        
        <mxCell id="dist-conn3" value="" style="endArrow=classic;startArrow=classic;html=1;rounded=0;strokeWidth=2;strokeColor=#e74c3c;curved=1;" edge="1" parent="1">
          <mxGeometry width="50" height="50" relative="1" as="geometry">
            <mxPoint x="780" y="220" as="sourcePoint" />
            <mxPoint x="800" y="240" as="targetPoint" />
          </mxGeometry>
        </mxCell>
        
        <!-- 分布式通信特点 -->
        <mxCell id="dist-features" value="通信挑战" style="text;html=1;strokeColor=none;fillColor=none;align=center;verticalAlign=middle;whiteSpace=wrap;rounded=0;fontSize=14;fontStyle=1;fontColor=#2c3e50;" vertex="1" parent="1">
          <mxGeometry x="750" y="330" width="100" height="30" as="geometry" />
        </mxCell>
        
        <mxCell id="dist-latency" value="延迟：毫秒级" style="rounded=1;whiteSpace=wrap;html=1;fillColor=#fce4ec;strokeColor=#b85450;fontSize=11;" vertex="1" parent="1">
          <mxGeometry x="620" y="380" width="100" height="30" as="geometry" />
        </mxCell>
        
        <mxCell id="dist-reliability" value="可靠性：不确定" style="rounded=1;whiteSpace=wrap;html=1;fillColor=#fce4ec;strokeColor=#b85450;fontSize=11;" vertex="1" parent="1">
          <mxGeometry x="740" y="380" width="100" height="30" as="geometry" />
        </mxCell>
        
        <mxCell id="dist-complexity" value="复杂度：高" style="rounded=1;whiteSpace=wrap;html=1;fillColor=#fce4ec;strokeColor=#b85450;fontSize=11;" vertex="1" parent="1">
          <mxGeometry x="860" y="380" width="100" height="30" as="geometry" />
        </mxCell>
        
        <mxCell id="dist-bandwidth" value="带宽：网络限制" style="rounded=1;whiteSpace=wrap;html=1;fillColor=#fce4ec;strokeColor=#b85450;fontSize=11;" vertex="1" parent="1">
          <mxGeometry x="680" y="430" width="120" height="30" as="geometry" />
        </mxCell>
        
        <mxCell id="dist-failure" value="故障模式：多样化" style="rounded=1;whiteSpace=wrap;html=1;fillColor=#fce4ec;strokeColor=#b85450;fontSize=11;" vertex="1" parent="1">
          <mxGeometry x="820" y="430" width="120" height="30" as="geometry" />
        </mxCell>
        
        <!-- 挑战详细说明 -->
        <mxCell id="challenges-title" value="主要挑战" style="text;html=1;strokeColor=none;fillColor=none;align=center;verticalAlign=middle;whiteSpace=wrap;rounded=0;fontSize=16;fontStyle=1;fontColor=#2c3e50;" vertex="1" parent="1">
          <mxGeometry x="450" y="500" width="200" height="30" as="geometry" />
        </mxCell>
        
        <mxCell id="challenge1" value="网络延迟" style="rounded=1;whiteSpace=wrap;html=1;fillColor=#fff2cc;strokeColor=#d6b656;fontSize=12;fontStyle=1;" vertex="1" parent="1">
          <mxGeometry x="200" y="550" width="100" height="40" as="geometry" />
        </mxCell>
        
        <mxCell id="challenge2" value="网络分区" style="rounded=1;whiteSpace=wrap;html=1;fillColor=#fff2cc;strokeColor=#d6b656;fontSize=12;fontStyle=1;" vertex="1" parent="1">
          <mxGeometry x="320" y="550" width="100" height="40" as="geometry" />
        </mxCell>
        
        <mxCell id="challenge3" value="数据包丢失" style="rounded=1;whiteSpace=wrap;html=1;fillColor=#fff2cc;strokeColor=#d6b656;fontSize=12;fontStyle=1;" vertex="1" parent="1">
          <mxGeometry x="440" y="550" width="100" height="40" as="geometry" />
        </mxCell>
        
        <mxCell id="challenge4" value="连接中断" style="rounded=1;whiteSpace=wrap;html=1;fillColor=#fff2cc;strokeColor=#d6b656;fontSize=12;fontStyle=1;" vertex="1" parent="1">
          <mxGeometry x="560" y="550" width="100" height="40" as="geometry" />
        </mxCell>
        
        <mxCell id="challenge5" value="节点故障" style="rounded=1;whiteSpace=wrap;html=1;fillColor=#fff2cc;strokeColor=#d6b656;fontSize=12;fontStyle=1;" vertex="1" parent="1">
          <mxGeometry x="680" y="550" width="100" height="40" as="geometry" />
        </mxCell>
        
        <mxCell id="challenge6" value="时钟同步" style="rounded=1;whiteSpace=wrap;html=1;fillColor=#fff2cc;strokeColor=#d6b656;fontSize=12;fontStyle=1;" vertex="1" parent="1">
          <mxGeometry x="800" y="550" width="100" height="40" as="geometry" />
        </mxCell>
        
        <!-- RPC解决方案 -->
        <mxCell id="rpc-solution" value="RPC机制：屏蔽分布式通信复杂性" style="rounded=1;whiteSpace=wrap;html=1;fillColor=#e1d5e7;strokeColor=#9673a6;fontSize=14;fontStyle=1;" vertex="1" parent="1">
          <mxGeometry x="400" y="650" width="300" height="50" as="geometry" />
        </mxCell>
        
        <!-- 箭头指向RPC -->
        <mxCell id="arrow-to-rpc" value="" style="endArrow=classic;html=1;rounded=0;strokeWidth=3;strokeColor=#9673a6;" edge="1" parent="1">
          <mxGeometry width="50" height="50" relative="1" as="geometry">
            <mxPoint x="550" y="600" as="sourcePoint" />
            <mxPoint x="550" y="640" as="targetPoint" />
          </mxGeometry>
        </mxCell>
        
      </root>
    </mxGraphModel>
  </diagram>
</mxfile>
